/* XPM */
static char *_2356f37a80c45f58a395ae9c7b54129[] = {
/* columns rows colors chars-per-pixel */
"16 16 79 1 ",
"  c None",
". c #00BFD2",
"X c #00BBD5",
"o c #00B9D7",
"O c #00BBD6",
"+ c #00BDD4",
"@ c #01BED4",
"# c #00BCD6",
"$ c #05BFD4",
"% c #05BED5",
"& c #07BFD4",
"* c #08BFD4",
"= c #08BFD5",
"- c #00B6D9",
"; c #00B9D8",
": c #0BC7CE",
"> c #0DC7CE",
", c #13C9CF",
"< c #00C2D1",
"1 c #00C0D3",
"2 c #00C2D2",
"3 c #00C3D2",
"4 c #00C6D0",
"5 c #0AC7D1",
"6 c #0AC5D3",
"7 c #0EC5D3",
"8 c #0BC0D5",
"9 c #0BC2D4",
"0 c #0EC3D4",
"q c #10C7D2",
"w c #16C8D1",
"e c #16CAD0",
"r c #1ACAD0",
"t c #1CCBD1",
"y c #1FCCD1",
"u c #27CACC",
"i c #28CACC",
"p c #2CCBCD",
"a c #2DCBCD",
"s c #2ECBCD",
"d c #37CDCB",
"f c #30CCCE",
"g c #38CDCB",
"h c #39CDCB",
"j c #39CECB",
"k c #3ACECB",
"l c #3ACECC",
"z c #3DCECC",
"x c #2ACDD6",
"c c #2DCED4",
"v c #3BD1D9",
"b c #3BD1DA",
"n c #44CFC9",
"m c #40CFCC",
"M c #43D0C9",
"N c #44D0C9",
"B c #4ED2C8",
"V c #4FD2C8",
"C c #58D5C6",
"Z c #58D5C7",
"A c #40CFD1",
"S c #45D1D3",
"D c #44D4D8",
"F c #48D4D9",
"G c #49D4DC",
"H c #61D7C5",
"J c #62D7C4",
"K c #62D8E1",
"L c #78DDE6",
"P c #78DDE7",
"I c #79DEE6",
"U c #81DEE8",
"Y c #86DFE9",
"T c #89E2E8",
"R c #8EE3EA",
"E c #92E4EA",
"W c #96E4EC",
"Q c #9AE5EC",
"! c #9EE6ED",
/* pixels */
"                ",
"      34>i      ",
"    +134>idN    ",
"   #+.24:udNB   ",
"  ;O@965,akNBC  ",
"  oX$PIbFSmnBCH ",
" -oX*YKqtflNBZJ ",
" -oX8WRxysgMBZJ ",
" -oX=QTvcfgnBZJ ",
" -oX&!LwrfhnBZJ ",
"  oX%UEGDAznBCH ",
"  ;#+075epjNBC  ",
"   O+.<4:udNV   ",
"    +134>idN    ",
"     134>ig     ",
"                "
};
