/* XPM */
static char *_e5d7120942141f192297fa3d019f626[] = {
/* columns rows colors chars-per-pixel */
"64 64 88 1 ",
"  c None",
". c #00BFCE",
"X c #00BCD5",
"o c #00B6D8",
"O c #00B8D8",
"+ c #00C6CF",
"@ c #0AC7CC",
"# c #07C8CE",
"$ c #0CC9CF",
"% c #11C7CC",
"& c #18C7CC",
"* c #13C8CD",
"= c #1BC8CD",
"- c #00C3D1",
"; c #0CC5D2",
": c #0FC9D0",
"> c #14C4D6",
", c #1AC5D7",
"< c #14C9D1",
"1 c #1DCAD3",
"2 c #23CACD",
"3 c #2BCBCC",
"4 c #34CCCB",
"5 c #3CCECB",
"6 c #24C6D7",
"7 c #24CBD3",
"8 c #2BCDD5",
"9 c #25C7D8",
"0 c #33CED2",
"q c #3ACFD1",
"w c #35CDD9",
"e c #3BCCDC",
"r c #2ED0D6",
"t c #34D0D5",
"y c #3BD1D4",
"u c #36D0D9",
"i c #3BD1D9",
"p c #43CFC9",
"a c #45D0CB",
"s c #4BD1C8",
"d c #54D3C7",
"f c #5BD5C6",
"g c #41CFD0",
"h c #40CFDC",
"j c #44D1D4",
"k c #4CD3D5",
"l c #44D3DB",
"z c #4BD4DC",
"x c #54D4D6",
"c c #5CD6D7",
"v c #53D5DD",
"b c #5AD7DB",
"n c #5CD9DE",
"m c #61D7C5",
"M c #64D8C3",
"N c #63DADD",
"B c #68DADD",
"V c #51D2E0",
"C c #5CD6E1",
"Z c #5DD8E0",
"A c #62D7E2",
"S c #63D9E2",
"D c #6BDAE3",
"F c #74DDE5",
"G c #7BDDE7",
"H c #7FDEE8",
"J c #7EE0E6",
"K c #83DFE9",
"L c #82E0E7",
"P c #8BE3E5",
"I c #84E1E8",
"U c #8CE2E9",
"Y c #94E4EB",
"T c #9CE6ED",
"R c #A4E7EE",
"E c #A4E8EE",
"W c #AAE9EF",
"Q c #ADEAF0",
"! c #B3ECF1",
"~ c #BBEEF2",
"^ c #C2EFF4",
"/ c #C4F0F4",
"( c #C9F1F5",
") c #D2F4F7",
"_ c #DDF7F8",
"` c #E1F7F9",
"' c #E6F9FB",
"] c #F9FDFE",
/* pixels */
"                                                                ",
"                                                                ",
"                                                                ",
"                                                                ",
"                            +--++#*=                            ",
"                        -----++++#*=773r                        ",
"                     X---X--++-++#*=2233445                     ",
"                   XX-X------++++#*=223344555                   ",
"                 -X--X-----+-++++#<=223345555pp                 ",
"                XXXXX-X-----++-++#*=223344555pps                ",
"               XXXXX-X------+-+++#*=22334445ppppss              ",
"             XXXX-X-X-X-----++-++#*=223344555pssssd             ",
"            XOXXXXXXX-X------+-++#*=223344555ppsssdd            ",
"           XXXXXX--X-X------+-+++#*=223344555pppsssdd           ",
"           OXXXXXX-XX-X-----++-++#*=22334445pppssssddd          ",
"          oXoXXXXXXX-X-------+-++#*=223334555ppssssdddf         ",
"         OXXXOXXXXXX--X-------++-#*=223344555pspsssdddf         ",
"        oXoOXXXXXXX-X-------+-+++#*==23334455ppssdsddfff        ",
"        OOOOOXXXXXXXXXX------++++#*=22345555pppsssdddddf        ",
"       ooOXXXXXXX--X,-X>1-;-1;;7+#*&q3qg555pp5pssssdddffm       ",
"       oOXoOXOXXXXX;DFDETwSZGw0HltPb2kx5a55appppsssdddffm       ",
"      oOooOXOXXXXX-X9!YF!YDZ7i1zzijy0aq4a5a5pppsssdsdddffM      ",
"      oooXoXXXXX-XXXeK!AA/DV888<zN7bvNqca555pppssssddfffmm      ",
"      oooXOOOXXXXXXXDTT/YU!CZrllzDjyjky4jyaappppssddddfffmM     ",
"     oooOOXOXXXXXX-XD^YKYV^GzzelrvNN*x45c455p5pssssdddfffmm     ",
"     oooOOXOoXXX-XXXGK!TDSBX+;+++::=q233p5555pspsssddddffmm     ",
"     oooOXOOXXXXXXXXGYDT6AF.+++++#<=22333555pppssddddfffmmM     ",
"     oooOOOXOXXX-X-X6Y!YDSh;-+-++#*=223334555ppssskddddffmMM    ",
"    ooooOOXOXXXXXX;XHKDWKUJ#+++++#<=2233444555sssdsdddfffmMM    ",
"    ooooOOOXXOXXXXXXYT~^FK!v@++++<*203q44555ppppassddfffmmmM    ",
"    ooooOOOOXXXX-X-XR!YD!/U^K7wFi#jy003345555ppsadddddfffmmM    ",
"    ooooOXXOOXXXXXX.R^K)(((YDhlbr<yt3q44445p5ppasasdddfffmMM    ",
"    ooXoOOOOOXXXXXXXT'!!YFVYCzz<zlx7j34444555ppsssdddffffMmM    ",
"    ooooOOXXOXXXX.XXF!!T~YD~ulZryytrt4r454555pppsssddddffMmM    ",
"    oooOOOXOXXXX-XXXhQKKYEUAluzJl$z=tj344555pppssssdddfffMMM    ",
"    oooOoXOOOXXXXXXoVTY'LYD-#+<<<1==2a2444555ppssssdddfffMmM    ",
"     oooOOXOXXXXXX-XW^D^!UV--+++#$:2223344555ppssssddddffmMM    ",
"     oooOOOXOXXX-XXXD((`QlD-++-+##*=22334445p5ppsssddffffmmM    ",
"     oOOOOOXoXXXXXX.VT!TZGF.++-+#+@222y455555pssssddddffmmM     ",
"     ooOOOXOXXXXX-XXZ~HUG/_FV7Di:nz20ky5555p5ppssssdddfffmm     ",
"      ooOXoOXXXXX--.K]^~WQI~T1lZrFnrqk4j55555spssssddddffmM     ",
"      ooOoOXOXXXXXXXAWWSEQD!Dr1zx1taB0j54j55ppppssdsddfffm      ",
"      ooOXXOXXXXXXXXeRRFEEIHl97uFryzj4ky54a5pppsssddddffmm      ",
"       oOOooXOXXX-X-XYGG~UDCEzSrnnF=xy3sq5a55pppsssddffffm      ",
"       oOXOXXXXXX--X9v>6l-;-r:;;1<t3r33xq4555spssssdddfff       ",
"        oOOXXXXXXXXXXXX.-----+++###3223345455ppssssdddffm       ",
"        OXOOOXXXXX-X-X--------++##$*223344555pppssddddff        ",
"         OOXOXXXX-XXX-X-----+-++##*=22333455ppsssssdddf         ",
"          OXOOXXX-X-X-------+-+++@&&223345555pppsssdddf         ",
"          OXXXXXO-XXX-X------+-++@%&223344455psssssddf          ",
"           OOXXXXXXXX-------+-+++#%222334445pppsssddd           ",
"            XXXXX-X--X-X-----+-++#%&223344555pppsssd            ",
"             XXXXXXXX--X-------++#*=223344455ppssss             ",
"              XXX--X-X---X--+-+++#*=223344555ppsss              ",
"               XXXXXX-X--X--++-++#*=22333555apass               ",
"                 X-X-X-------++++#*=223344455pa                 ",
"                   ---X------+++##*=223344555p                  ",
"                     X------+++++#*=22334445                    ",
"                       ----+-+++##*=22334                       ",
"                           --++++#*=22                          ",
"                                                                ",
"                                                                ",
"                                                                ",
"                                                                "
};
