/* XPM */
static char *ea76bf7ba39d4b26b20648d70bdda9c1[] = {
/* columns rows colors chars-per-pixel */
"32 32 215 2 ",
"   c None",
".  c #00BDD2",
"X  c #00BCD3",
"o  c #00BDD3",
"O  c #02BDD3",
"+  c #00BED2",
"@  c #00BED3",
"#  c #00BFD3",
"$  c #02BED3",
"%  c #04BED3",
"&  c #00B9D7",
"*  c #00BBD6",
"=  c #00BAD7",
"-  c #00BDD4",
";  c #00BCD5",
":  c #00BDD5",
">  c #00BED4",
",  c #03BFD4",
"<  c #05BED4",
"1  c #04BFD4",
"2  c #06BFD4",
"3  c #00B6D8",
"4  c #00B7D8",
"5  c #00B6D9",
"6  c #00B8D8",
"7  c #00C1CD",
"8  c #00C6CD",
"9  c #01C6CD",
"0  c #00C4CE",
"q  c #00C4CF",
"w  c #00C5CF",
"e  c #02C7CE",
"r  c #04C7CE",
"t  c #09C8CF",
"y  c #0BC9CF",
"u  c #11C7CC",
"i  c #12C7CC",
"p  c #15C8CD",
"a  c #17C8CD",
"s  c #1DCACE",
"d  c #1ECACF",
"f  c #00C1D1",
"g  c #00C0D2",
"h  c #00C1D3",
"j  c #00C2D2",
"k  c #00C5D0",
"l  c #00C4D1",
"z  c #00C6D0",
"x  c #05C6D0",
"c  c #07C5D2",
"v  c #08C4D0",
"b  c #08C5D2",
"n  c #0CC5D3",
"m  c #08C0D4",
"M  c #0AC0D4",
"N  c #0BC1D4",
"B  c #0DC4D4",
"V  c #0AC8D1",
"C  c #0FC8D2",
"Z  c #17C4D6",
"A  c #18C6D5",
"S  c #19C6D6",
"D  c #10C8D2",
"F  c #14CAD2",
"G  c #15C9D4",
"H  c #1FC8D5",
"J  c #1ECAD4",
"K  c #21C9CD",
"L  c #22C9CC",
"P  c #22C9CD",
"I  c #23C9CD",
"U  c #23CBCF",
"Y  c #27CACE",
"T  c #2ACBCC",
"R  c #2BCBCC",
"E  c #29CBCE",
"W  c #2ACBCE",
"Q  c #2CCBCC",
"!  c #2FCBCC",
"~  c #33CCCB",
"^  c #34CCCB",
"/  c #35CDCB",
"(  c #37CDCB",
")  c #30CCCD",
"_  c #32CCCD",
"`  c #30CDCF",
"'  c #33CDCE",
"]  c #35CCCC",
"[  c #36CCCC",
"{  c #34CDCE",
"}  c #35CDCE",
"|  c #3BCDCA",
" . c #3BCDCB",
".. c #3ACECA",
"X. c #3BCECA",
"o. c #3CCDCA",
"O. c #3CCECA",
"+. c #3CCECB",
"@. c #3DCECB",
"#. c #3ECECB",
"$. c #38CDCC",
"%. c #3BCDCC",
"&. c #3BCECC",
"*. c #3BCECF",
"=. c #3CCECD",
"-. c #3DCECD",
";. c #20CDD3",
":. c #25CCD0",
">. c #23CBD4",
",. c #26CAD6",
"<. c #27CBD6",
"1. c #21CCD5",
"2. c #23CCD5",
"3. c #27CDD5",
"4. c #26CED4",
"5. c #2BCDD1",
"6. c #2CCFD5",
"7. c #32CDD0",
"8. c #33CDD0",
"9. c #34CDD0",
"0. c #34CDD1",
"q. c #35CFD3",
"w. c #3ECFD0",
"e. c #3FCFD0",
"r. c #34CFD8",
"t. c #3FD0D2",
"y. c #3FD0D3",
"u. c #38D0D4",
"i. c #39D0D4",
"p. c #36D0D8",
"a. c #38D0D8",
"s. c #3BD0D9",
"d. c #3AD1D9",
"f. c #3DD1D9",
"g. c #3CD3D9",
"h. c #3ED2DA",
"j. c #41CEC9",
"k. c #41CFC9",
"l. c #41CFCA",
"z. c #40CFCB",
"x. c #42CFCA",
"c. c #40CFCD",
"v. c #40CFCE",
"b. c #42CFCE",
"n. c #46D0C9",
"m. c #47D0C9",
"M. c #48D0C9",
"N. c #4BD1C8",
"B. c #4CD1C8",
"V. c #55D4C7",
"C. c #5AD5C6",
"Z. c #5FD6C5",
"A. c #51D3C8",
"S. c #44D0D1",
"D. c #45D1D2",
"F. c #47D2D4",
"G. c #44D3D7",
"H. c #46D3D7",
"J. c #48D3D7",
"K. c #4FD4D7",
"L. c #41D3DB",
"P. c #44D3DA",
"I. c #47D5DA",
"U. c #4CD4D8",
"Y. c #4CD6DB",
"T. c #50D7DC",
"R. c #52D6DD",
"E. c #53D5DE",
"W. c #55D7DD",
"Q. c #57D7DF",
"!. c #58D6DF",
"~. c #5AD7DF",
"^. c #64D8C4",
"/. c #5FD5E2",
"(. c #61D6E3",
"). c #60D8E1",
"_. c #63D8E1",
"`. c #63D9E1",
"'. c #6DD8E4",
"]. c #73DAE5",
"[. c #74DBE6",
"{. c #71DCE4",
"}. c #74DDE5",
"|. c #76DCE5",
" X c #7FDFE6",
".X c #80DEE8",
"XX c #80E0E8",
"oX c #85E0E9",
"OX c #87E1E8",
"+X c #88E0E9",
"@X c #8BE1E9",
"#X c #89E1EA",
"$X c #8FE3EA",
"%X c #91E3EA",
"&X c #91E3EB",
"*X c #92E3EB",
"=X c #92E4EB",
"-X c #95E4EB",
";X c #9AE4EC",
":X c #9AE5ED",
">X c #9FE7ED",
",X c #9EE6EE",
"<X c #9FE7EE",
"1X c #A0E7ED",
"2X c #A1E7EE",
"3X c #A3E7EE",
"4X c #A5E8EE",
"5X c #A6E8EF",
"6X c #A9E9EF",
"7X c #AAE9EF",
"8X c #ABEAEF",
"9X c #ACEAEF",
"0X c #B7ECF2",
"qX c #B6EDF2",
"wX c #C4EFF4",
/* pixels */
"                                                                ",
"                                                                ",
"                          l k z r a I                           ",
"                    # h j l k z r a I Q ^ X.                    ",
"                : > # h j l k z r a I Q ^ ..l.n.                ",
"              ; : > # h j l k z r a I Q ^ ..l.n.B.              ",
"            * ; : > # h j l k z r a I Q ^ ..l.n.B.A.            ",
"          & * ; : > # h j l k z r a I Q ^ ..l.n.B.A.V.          ",
"        6 = * ; : > @ g f l k w e p P T ^ ..l.n.B.A.V.C.        ",
"        6 = * ; : , N B n b C D y d E } &.O.l.n.B.A.V.C.        ",
"      4 6 = * ; - 2 (.#XXX!.d.h.I.U.t.D.c.#.x.m.N.A.V.C.Z.      ",
"      3 6 = * ; - o [.1X:X Xs.r.W.J.K.S.b.z.x.m.N.A.V.C.Z.      ",
"      3 6 = * ; - 2 +X<X|.`.<.1.3.u.7.} v.| l.M.N.A.V.C.Z.^.    ",
"    5 4 6 = * ; - % '.&X_.,.7 w 8 u K T ~ ..l.n.B.A.V.C.Z.^.    ",
"    5 4 6 = * ; - m .X2X%X).v x t s W ! ] ..l.n.B.A.V.C.Z.^.    ",
"    5 4 6 = * ; - M 5X5XqX9XR.L.6.q.9._ [ +.j.n.B.A.V.C.Z.^.    ",
"    5 4 6 = * ; - 1 ,X0X-XOX~.P.g.i.8.{ (  .j.n.B.A.V.C.Z.^.    ",
"    5 4 6 = * ; - $ ].3X>X!.J p.4.U 0.) / X.l.n.B.A.V.C.Z.^.    ",
"    5 4 6 = * ; - < *XwX=XH 7 0 8 i L R ^ ..l.n.B.A.V.C.Z.^.    ",
"      4 6 = * ; - . oX6X$X}.>.2.;.5.` *.%.o.l.n.B.A.V.C.Z.^.    ",
"      3 6 = * ; - O ;X7X4X8XQ.f.Y.H.F.w.=.@.x.m.N.A.V.C.Z.      ",
"      3 6 = * ; - X /.@X-X{.E.a.T.G.y.e.-.#.k.m.B.A.V.C.Z.      ",
"        6 = * ; : - Z S A c G V F :.Y ' $...x.m.B.A.V.C.        ",
"        6 = * ; : > + g f l q z 9 p P T ~ ..l.n.B.A.V.C.        ",
"          & * ; : > # h j l k z r a I Q ^ ..l.n.B.A.V.          ",
"            * ; : > # h j l k z r a I Q ^ ..l.n.B.A.            ",
"              ; : > # h j l k z r a I Q ^ ..l.n.B.              ",
"                : > # h j l k z r a I Q ^ ..l.n.                ",
"                    # h j l k z r a I Q ^ X.                    ",
"                        j l k z r a I Q                         ",
"                                                                ",
"                                                                "
};
